# xmcd
#
# Track frame offsets: 
#        150
#        8865
#        16807
#        30885
#        40892
#        50660
#        62390
#        76942
#        85645
#        95867
#        105020
#        119607
#        127770
#        138575
#        148832
#        163222
#        173467
#        186352
#        197352
#        209665
#        225900
#        241670
#
# Disc length: 3349 seconds
#
# Revision: 4
# Processed by: cddbd v1.5.2PL0 Copyright (c) Steve Scherf et al.
# Submitted via: ExactAudioCopyFreeDBPlugin 1.0
#
DISCID=110d1316
DTITLE=Various Artist - Echte Volksmusik aus den Bergen CD 1
DYEAR=1995
DGENRE=Volksmusik
TTITLE0=Aschberger Stub'nmusi - Schnackerl Boarischer
TTITLE1=Schoenauer Musikanten - Pflughoerndl Polka
TTITLE2=Stoaberger Musi - Kohlbren Marsch
TTITLE3=Leukentaler Saitenmusik - Zillertaler Boarischer
TTITLE4=Toppmair Dreigesang - Wann i mein Buam klopf'n beim Fensterl h
TTITLE4=oer
TTITLE5=Aschberger Stub'nmusi - Karwendel Boarischer
TTITLE6=Peter Vordermaier - Toelzer Schuetzenmarsch
TTITLE7=Georg Schwenk - A g'fuehrigs Walzerl
TTITLE8=Rottacher Saenger - 's Dirndl is Wunderschee
TTITLE9=Stoaberger Musi - Dirndl drah di
TTITLE10=Leukentaler Saitenmusik - Auf da Schneid
TTITLE11=Aschberger Stub'nmusi - Liesei Boarischer
TTITLE12=Christian Bacher - An Michae da sei
TTITLE13=Tegernseer Zwoag'sang - Wildschuetz Jennerwein Lied
TTITLE14=Stub'nmusi Schwenk - Vier Okkarinalandler
TTITLE15=Stub'nmusi Schwenk - Wiener Taenze
TTITLE16=Leukentaler Saitenmusik - Da Pfoa'n-Z'reissa
TTITLE17=Rottacher Saenger - Bin a lustiger Wildschuetz
TTITLE18=Leukentaler Saitenmusik - 's flotte Tanzl
TTITLE19=Fischbachalm Musi - Hundstall Polka
TTITLE20=Stoaberger Musi - Gugg'n-Boarischer
TTITLE21=Aschberger Stub'nmusi - Hackbrett boarischer
EXTD=YEAR: 1995
EXTT0=
EXTT1=
EXTT2=
EXTT3=
EXTT4=
EXTT5=
EXTT6=
EXTT7=
EXTT8=
EXTT9=
EXTT10=
EXTT11=
EXTT12=
EXTT13=
EXTT14=
EXTT15=
EXTT16=
EXTT17=
EXTT18=
EXTT19=
EXTT20=
EXTT21=
PLAYORDER=
